<svg width="56" height="56" viewBox="0 0 56 56" fill="none" xmlns="http://www.w3.org/2000/svg">
<path d="M23.24 35.84C23.94 35.84 24.5 35.28 24.5 34.58C24.5 33.88 23.94 33.32 23.24 33.32C22.54 33.32 21.98 33.88 21.98 34.58C21.98 35.28 22.54 35.84 23.24 35.84Z" fill="#EDE8E5"/>
<path d="M23.24 39.34C23.94 39.34 24.5 38.78 24.5 38.08C24.5 37.38 23.94 36.82 23.24 36.82C22.54 36.82 22.12 37.24 21.98 38.08C21.98 38.78 22.54 39.34 23.24 39.34Z" fill="#EDE8E5"/>
<path d="M23.24 42.84C23.94 42.84 24.5 42.28 24.5 41.58C24.5 40.88 23.94 40.32 23.24 40.32C22.54 40.32 22.12 40.88 21.98 41.58C21.98 42.28 22.54 42.84 23.24 42.84Z" fill="#EDE8E5"/>
<path d="M48.8601 4.89999H7.14007C4.20007 4.89999 1.82007 7.27999 1.82007 10.22V45.92C1.82007 48.86 4.20007 51.24 7.14007 51.24H48.7201C51.6601 51.24 54.0401 48.86 54.1801 45.92V10.22C54.1801 7.27999 51.8001 4.89999 48.8601 4.89999ZM26.7401 28.42H19.7401C20.3001 27.72 20.5801 27.02 20.8601 26.18C21.8401 26.18 22.6801 25.76 23.3801 25.2C24.0801 24.5 24.3601 23.52 24.3601 22.68C24.3601 20.72 22.6801 19.04 20.7201 19.04H10.0801C9.38007 19.04 8.82007 19.6 8.82007 20.3V25.06C8.82007 26.32 9.24007 27.58 9.94007 28.56H7.70007C7.00007 28.56 6.44007 29.12 6.44007 29.82C6.44007 30.52 7.00007 31.08 7.70007 31.08H26.6001V48.86H7.14007C5.46007 48.86 4.20007 47.6 4.20007 45.92V10.22C4.20007 8.53999 5.46007 7.27999 7.14007 7.27999H26.7401V28.56V28.42ZM20.8601 23.8V21.42C21.5601 21.42 22.1201 21.98 22.1201 22.54C22.1201 23.1 21.9801 23.24 21.7001 23.38C21.4201 23.66 21.1401 23.8 20.8601 23.8ZM18.4801 25.48C18.3401 26.88 17.3601 28 15.9601 28.42H13.7201C12.3201 28 11.2001 26.6 11.2001 25.06V21.42H18.2001V24.92C18.2001 25.06 18.2001 25.34 18.3401 25.48H18.4801ZM51.8001 45.78C51.8001 47.46 50.5401 48.72 48.8601 48.72H29.2601V30.1C29.2601 30.1 29.2601 29.82 29.2601 29.68C29.2601 29.54 29.2601 29.4 29.2601 29.26V7.27999H48.8601C50.5401 7.27999 51.8001 8.53999 51.8001 10.22V45.92V45.78Z" fill="#EDE8E5"/>
<path d="M11.9001 17.92H18.4801C19.1801 17.92 19.7401 17.36 19.7401 16.8C19.7401 16.1 19.1801 15.54 18.4801 15.54H11.9001C11.6201 15.54 11.3401 15.26 11.3401 14.98C11.3401 14.7 11.3401 14.7 11.4801 14.56C11.4801 14.56 11.6201 14.42 11.9001 14.42H13.8601C15.6801 14.42 17.2201 12.88 17.2201 11.06V10.78C17.2201 10.08 16.6601 9.51999 15.9601 9.51999C15.2601 9.51999 14.7001 10.08 14.7001 10.78V11.06C14.7001 11.62 14.2801 12.04 13.7201 12.04H11.7601C11.0601 12.04 10.2201 12.32 9.66007 12.88C9.10007 13.44 8.82007 14.14 8.82007 14.98C8.82007 16.66 10.0801 17.92 11.7601 17.92H11.9001Z" fill="#EDE8E5"/>
<path d="M42.1401 42.7H32.6201C31.9201 42.7 31.3601 43.26 31.3601 43.96C31.3601 44.66 31.9201 45.22 32.6201 45.22H42.1401C42.8401 45.22 43.4001 44.8 43.4001 43.96C43.4001 43.12 42.8401 42.7 42.1401 42.7Z" fill="#EDE8E5"/>
<path d="M48.16 42.7H45.78C45.08 42.7 44.52 43.26 44.52 43.96C44.52 44.66 45.08 45.22 45.78 45.22H48.16C48.72 45.22 49.28 44.8 49.42 43.96C49.42 43.26 48.86 42.7 48.16 42.7Z" fill="#EDE8E5"/>
<path d="M42.1401 39.2H32.6201C31.9201 39.2 31.3601 39.76 31.3601 40.46C31.3601 41.16 31.9201 41.72 32.6201 41.72H42.1401C42.8401 41.72 43.4001 41.16 43.4001 40.46C43.4001 39.76 42.8401 39.2 42.1401 39.2Z" fill="#EDE8E5"/>
<path d="M48.16 39.2H45.78C45.08 39.2 44.52 39.76 44.52 40.46C44.52 41.16 45.08 41.72 45.78 41.72H48.16C48.72 41.72 49.28 41.16 49.42 40.46C49.42 39.76 48.86 39.2 48.16 39.2Z" fill="#EDE8E5"/>
<path d="M42.1401 35.56H32.6201C31.9201 35.56 31.3601 36.12 31.3601 36.82C31.3601 37.52 31.9201 38.08 32.6201 38.08H42.1401C42.8401 38.08 43.4001 37.66 43.4001 36.82C43.4001 35.98 42.8401 35.56 42.1401 35.56Z" fill="#EDE8E5"/>
<path d="M48.16 35.56H45.78C45.08 35.56 44.52 36.12 44.52 36.82C44.52 37.52 45.08 38.08 45.78 38.08H48.16C48.72 38.08 49.28 37.66 49.42 36.82C49.42 36.12 48.86 35.56 48.16 35.56Z" fill="#EDE8E5"/>
<path d="M42.1401 32.06H32.6201C31.9201 32.06 31.3601 32.62 31.3601 33.32C31.3601 34.02 31.9201 34.58 32.6201 34.58H42.1401C42.8401 34.58 43.4001 34.02 43.4001 33.32C43.4001 32.62 42.8401 32.06 42.1401 32.06Z" fill="#EDE8E5"/>
<path d="M48.16 32.06H45.78C45.08 32.06 44.52 32.62 44.52 33.32C44.52 34.02 45.08 34.58 45.78 34.58H48.16C48.72 34.58 49.42 34.02 49.42 33.32C49.42 32.62 48.86 32.06 48.16 32.06Z" fill="#EDE8E5"/>
<path d="M42.1401 28.42H32.6201C31.9201 28.42 31.3601 28.98 31.3601 29.68C31.3601 30.38 31.9201 30.94 32.6201 30.94H42.1401C42.8401 30.94 43.4001 30.38 43.4001 29.68C43.4001 28.98 42.8401 28.42 42.1401 28.42Z" fill="#EDE8E5"/>
<path d="M48.16 28.42H45.78C45.08 28.42 44.52 28.98 44.52 29.68C44.52 30.38 45.08 30.94 45.78 30.94H48.16C48.72 30.94 49.42 30.38 49.42 29.68C49.42 28.98 48.86 28.42 48.16 28.42Z" fill="#EDE8E5"/>
<path d="M42.1401 24.92H32.6201C31.9201 24.92 31.3601 25.48 31.3601 26.18C31.3601 26.88 31.9201 27.44 32.6201 27.44H42.1401C42.8401 27.44 43.4001 26.88 43.4001 26.18C43.4001 25.48 42.8401 24.92 42.1401 24.92Z" fill="#EDE8E5"/>
<path d="M48.16 24.92H45.78C45.08 24.92 44.52 25.48 44.52 26.18C44.52 26.88 45.08 27.44 45.78 27.44H48.16C48.72 27.44 49.42 26.88 49.42 26.18C49.42 25.48 48.86 24.92 48.16 24.92Z" fill="#EDE8E5"/>
<path d="M42.1401 21.42H32.6201C31.9201 21.42 31.3601 21.98 31.3601 22.68C31.3601 23.38 31.9201 23.94 32.6201 23.94H42.1401C42.8401 23.94 43.4001 23.52 43.4001 22.68C43.4001 21.84 42.8401 21.42 42.1401 21.42Z" fill="#EDE8E5"/>
<path d="M48.16 21.42H45.78C45.08 21.42 44.52 21.98 44.52 22.68C44.52 23.38 45.08 23.94 45.78 23.94H48.16C48.72 23.94 49.28 23.52 49.42 22.68C49.42 21.98 48.86 21.42 48.16 21.42Z" fill="#EDE8E5"/>
<path d="M42.1401 17.92H32.6201C31.9201 17.92 31.3601 18.48 31.3601 19.18C31.3601 19.88 31.9201 20.44 32.6201 20.44H42.1401C42.8401 20.44 43.4001 19.88 43.4001 19.18C43.4001 18.48 42.8401 17.92 42.1401 17.92Z" fill="#EDE8E5"/>
<path d="M48.16 17.92H45.78C45.08 17.92 44.52 18.48 44.52 19.18C44.52 19.88 45.08 20.44 45.78 20.44H48.16C48.72 20.44 49.28 19.88 49.42 19.18C49.42 18.48 48.86 17.92 48.16 17.92Z" fill="#EDE8E5"/>
<path d="M7.84008 35.7H19.7401C20.3001 35.7 21.0001 35.14 21.0001 34.44C21.0001 33.74 20.4401 33.18 19.7401 33.18H7.84008C7.14008 33.18 6.58008 33.74 6.58008 34.44C6.58008 35.14 7.14008 35.7 7.84008 35.7Z" fill="#EDE8E5"/>
<path d="M19.7401 36.82H7.84008C7.14008 36.82 6.58008 37.38 6.58008 38.08C6.58008 38.78 7.14008 39.34 7.84008 39.34H19.7401C20.3001 39.34 20.8601 38.78 21.0001 38.08C21.0001 37.38 20.4401 36.82 19.7401 36.82Z" fill="#EDE8E5"/>
<path d="M19.7401 40.32H7.84008C7.14008 40.32 6.58008 40.88 6.58008 41.58C6.58008 42.28 7.14008 42.84 7.84008 42.84H19.7401C20.3001 42.84 20.8601 42.42 21.0001 41.58C21.0001 40.88 20.4401 40.32 19.7401 40.32Z" fill="#EDE8E5"/>
</svg>
