<svg width="48" height="48" viewBox="0 0 48 48" fill="none" xmlns="http://www.w3.org/2000/svg">
<path d="M14.2 36.6C13.4268 37.3732 12.1732 37.3732 11.4 36.6C10.6268 35.8268 10.6268 34.5732 11.4 33.8L21.2 24L11.4 14.2C10.6268 13.4268 10.6268 12.1732 11.4 11.4C12.1732 10.6268 13.4268 10.6268 14.2 11.4L24 21.2L33.8 11.4C34.5732 10.6268 35.8268 10.6268 36.6 11.4C37.3732 12.1732 37.3732 13.4268 36.6 14.2L26.8 24L36.6 33.8C37.3732 34.5732 37.3732 35.8268 36.6 36.6C35.8268 37.3732 34.5732 37.3732 33.8 36.6L24 26.8L14.2 36.6Z" fill="white"/>
</svg>
