<svg width="48" height="48" viewBox="0 0 48 48" fill="none" xmlns="http://www.w3.org/2000/svg">
<path d="M9.75 34.5C8.7835 34.5 8 33.7165 8 32.75C8 31.7835 8.7835 31 9.75 31H29.3611C30.3276 31 31.1111 31.7835 31.1111 32.75C31.1111 33.7165 30.3276 34.5 29.3611 34.5H9.75ZM38.736 31.5443C38.0564 32.2132 36.9658 32.2132 36.2863 31.5443L28.6222 24L36.2863 16.4557C36.9658 15.7868 38.0564 15.7868 38.736 16.4557C39.4308 17.1397 39.4308 18.2603 38.736 18.9443L33.6 24L38.736 29.0557C39.4308 29.7397 39.4308 30.8603 38.736 31.5443ZM9.75 25.75C8.7835 25.75 8 24.9665 8 24C8 23.0335 8.7835 22.25 9.75 22.25H24.0278C24.9943 22.25 25.7778 23.0335 25.7778 24C25.7778 24.9665 24.9943 25.75 24.0278 25.75H9.75ZM9.75 17C8.7835 17 8 16.2165 8 15.25C8 14.2835 8.7835 13.5 9.75 13.5H29.3611C30.3276 13.5 31.1111 14.2835 31.1111 15.25C31.1111 16.2165 30.3276 17 29.3611 17H9.75Z" fill="white"/>
</svg>
