<?xml version="1.0" encoding="UTF-8"?>
<svg id="Layer_2" data-name="Layer 2" xmlns="http://www.w3.org/2000/svg" viewBox="0 0 223.63 57.11">
  <defs>
    <style>
      .cls-1 {
        fill: #005293;
      }

      .cls-2 {
        fill: #612f26;
      }

      .cls-3 {
        fill: #030302;
      }

      .cls-4 {
        fill: #ed6a56;
      }

      .cls-5 {
        fill: #d6c5b4;
      }

      .cls-6 {
        fill: #fefefc;
      }

      .cls-7 {
        fill: #fecb00;
      }

      .cls-8 {
        fill: #c67500;
      }

      .cls-9 {
        fill: #c1a48e;
      }
    </style>
  </defs>
  <g id="Guidelines_Sheet_01_-_800_x_3110_px" data-name="Guidelines Sheet 01 - 800 x 3110 px">
    <g id="Graphic_Elements_Top_" data-name="Graphic Elements (Top)">
      <g>
        <g>
          <path d="M77.07,11.68v33.72h-7.07v-10.66h-3.54v10.66h-7.12V11.68h7.12v15.94h3.54v-15.94h7.07Z"/>
          <path d="M89.14,18.8v8.82h8.91v7.12h-8.91v3.54h8.91v7.12h-15.99V11.68h15.99v7.12h-8.91Z"/>
          <path d="M115.35,11.68v28.44c0,.74-.14,1.43-.41,2.06-.27.63-.65,1.19-1.14,1.67s-1.05.86-1.7,1.14c-.65.27-1.34.41-2.09.41h-7.12v-7.12h5.33V11.68h7.12Z"/>
          <path d="M153.38,11.62v7.12h-8.91v8.86h8.91v7.12h-8.91v10.66h-7.07V11.62h15.99Z"/>
          <path d="M165.59,11.62v33.77h-7.07V11.62h7.07Z"/>
          <path d="M188.5,11.68v15.94c0,.98-.35,1.81-1.04,2.52-.69.7-1.53,1.04-2.5,1.04.97,0,1.8.35,2.5,1.05.69.7,1.04,1.53,1.04,2.51v10.66h-7.12v-10.66h-3.54v10.66h-7.12V11.68h7.12v15.94h3.54v-15.94h7.12Z"/>
          <path d="M205.61,11.62c.74,0,1.44.15,2.08.44s1.21.68,1.7,1.16c.48.48.86,1.05,1.14,1.7.28.65.41,1.32.41,2.03v28.44h-7.12v-10.66h-3.54v10.66h-7.07v-28.44c0-.71.14-1.39.41-2.03.27-.65.65-1.21,1.14-1.7.48-.48,1.04-.87,1.67-1.16.63-.29,1.32-.44,2.06-.44h7.12ZM200.28,18.75v8.86h3.54v-8.86h-3.54Z"/>
          <path d="M221.11,45.64c-.71,0-1.31-.25-1.81-.75s-.75-1.09-.75-1.77.25-1.3.75-1.77,1.1-.7,1.81-.7c.75,0,1.35.23,1.82.7s.7,1.06.7,1.77-.23,1.27-.7,1.77-1.07.75-1.82.75ZM219.76,35.22l-.68-23.74h4.07l-.73,23.74h-2.67Z"/>
        </g>
        <g>
          <path d="M65.26,41.6c-.01-.06-.02-.13-.04-.19-.01-.06-.03-.12-.04-.19-.01-.06-.03-.12-.05-.19-.02-.06-.03-.12-.05-.18-.02-.06-.04-.12-.05-.18-.02-.06-.04-.12-.06-.18-.02-.06-.04-.12-.06-.18-.02-.06-.04-.12-.07-.18s-.05-.12-.07-.18c-.02-.06-.05-.12-.08-.18-.03-.06-.05-.12-.08-.17-.03-.06-.06-.11-.08-.17-.16-.31-.34-.61-.54-.9.29-.78.43-1.52.07-2.31-.4-.89-1.21-1.46-2.11-1.8-.01,0-.03-.01-.04-.02-.72-2.71-1.52-4.6-3.7-6.5-.32-.29-.66-.55-1-.81-.35-.25-.71-.49-1.08-.71-1.91-1.1-3.97-1.71-6.17-1.85l.71-14.16c0-.06,0-.13,0-.19,0-.04-.02-.08-.03-.12,0-.26,0-.52-.03-.78-.04-.31-.26-.57-.47-.79-2.02-2.13-9.94-3.21-13-3.35,1.14-.76,2.76-1.47,3.06-2.97.08-.42.02-.86-.23-1.22-.35-.51-.99-.82-1.59-.92-.58-.1-1.22-.04-1.79.1-1.49.38-2.87,1.38-3.66,2.71-.35.58-.57,1.22-.78,1.87-1.29-.02-2.58-.06-3.88-.02-2.66.09-10.35.64-12.21,2.44-.17.16-.33.36-.4.58-.17.55-.14,1.28-.19,1.86l-.31,4.08c-2.41-.23-5.39-.39-7.38,1.24-1.23,1.01-1.85,2.51-1.99,4.07-.02.22-.02.43-.02.65-1.52.02-3.4.31-4.52,1.45-.58.59-.82,1.32-.81,2.13,0,.15.01.31.03.46-.45.86-.62,1.75-.4,2.7.07.31.19.62.25.93.1.5.11.99.27,1.49.33,1.08.98,1.89,1.99,2.42.24.13.49.23.75.32.31.1.69.15.97.33.24.16.42.44.64.63.96.85,1.92,1.12,3.18.9,1.96,1.94,4.42,3.88,7.25,3.45,2.77-.42,3.95-1.56,3.95-1.56.9.58,1.93,1.11,3.07,1.58.1.04.19.08.29.12.39.17.84.36,1.31.46.06.03.11.05.17.08-1.42,1.54-2.73,3.12-3.78,4.94-1.01-.28-1.87-.29-2.8.25-.93.53-1.3,1.46-1.78,2.36-1.68-1-3-1.6-4.99-1.08-.08.02-.16.05-.25.07-.08.03-.16.05-.24.08-.08.03-.16.06-.24.1-.08.03-.16.07-.23.11-.08.04-.15.08-.23.12-.07.04-.15.08-.22.13-.07.04-.14.09-.21.14-.07.05-.14.1-.21.15-.07.05-.13.1-.2.16-.07.05-.13.11-.19.17-.06.06-.12.12-.18.18-.06.06-.12.12-.17.19-.06.06-.11.13-.17.2-.05.07-.11.13-.16.2-.05.07-.1.14-.15.21-.05.07-.09.14-.14.22-.54.93-.76,2.03-.48,3.07.59,2.2,3.73,4.74,5.69,5.86,1.69.96,4.58,2.15,6.52,1.63.74-.2,1.24-.72,1.61-1.37.93-1.63,1.21-3.47,1.47-5.3.93-.55,1.62-1.41,1.89-2.47.25-.96-.06-1.83-.5-2.69.78-2.1,3.26-5.02,5.06-6.46,1.26.22,2.5.37,3.73.44.55.03,1.13.04,1.71.04.12.24.24.49.37.72.98,1.69,2.69,3.42,4.43,4.36-.12.96-.04,1.77.57,2.56.55.71,1.32,1.09,2.21,1.2.22.03.44.05.66.05-.43.69-.73,1.45-.93,2.24-.33,1.59-.23,3.28.68,4.67.65,1,1.85,1.69,3.01,1.92.71.14,1.3-.05,1.89-.45,2.73-1.88,4.25-5.5,4.82-8.66.24-1.3.6-4.43-.15-5.52-.41-.59-.91-.57-1.49-.87-.27-.14-.49-.39-.74-.56-.63-.42-1.59-.58-2.33-.7-.46-.07-.92-.12-1.38-.16-.73-.68-1.56-1.19-2.59-1.14-.05,0-.11,0-.16,0-.05,0-.11.01-.16.02-.05,0-.11.02-.16.03-.05,0-.11.02-.16.03-.05.01-.1.03-.16.04-.05.02-.1.03-.15.05-.05.02-.1.04-.15.06-.05.02-.1.04-.15.06-.05.02-.1.05-.14.07-.05.03-.09.05-.14.08-.05.03-.09.06-.14.09-.04.03-.09.06-.13.09-.04.03-.09.06-.13.1-.04.03-.08.07-.12.11-.04.04-.08.07-.12.11-.04.04-.08.08-.11.12-.21.23-.39.49-.57.75-.94-.68-1.46-1.15-1.92-1.82,4.94-.77,7.66-2.44,9.08-3.71.93-.83,1.51-1.72,1.77-2.7.2-.74.23-1.56.26-2.28,0-.17.01-.33.02-.49l.06-1.19c2.15,0,3.98.56,5.52,2.11,1.17,1.18,1.84,2.65,2.34,4.22-.75.35-1.3.88-1.59,1.67-.22.6-.22,1.19-.11,1.81-.08.05-.17.1-.25.15-.08.05-.16.1-.24.16-.08.05-.16.11-.24.17-.08.06-.15.12-.23.18-.07.06-.15.13-.22.19-.07.07-.14.13-.21.2-.07.07-.13.14-.2.21-.06.07-.13.15-.19.22-.06.08-.12.15-.18.23-.06.08-.11.16-.17.24s-.11.16-.16.25c-.05.08-.1.17-.14.25-.05.09-.09.17-.13.26-.04.09-.08.18-.12.27-.04.09-.07.18-.11.27-.03.09-.06.18-.09.28-.24.8-.25,1.69.15,2.45.21.4.51.65.86.93-.22.64-.09,1.45.2,2.05.33.68.91,1.16,1.62,1.4.64.22.97.06,1.58.1.44.03.85.25,1.29.3.63.08,1.22-.06,1.81-.29.19-.08.4-.19.61-.23.66-.14.94-.01,1.62-.35,1.11-.55,1.82-1.61,2.2-2.76.02-.06.04-.12.06-.18.02-.06.04-.12.05-.18.02-.06.03-.12.05-.18.01-.06.03-.12.04-.19.01-.06.03-.12.04-.19s.02-.13.03-.19c.01-.06.02-.13.03-.19,0-.06.02-.13.02-.19,0-.06.01-.13.02-.19,0-.06.01-.13.01-.19,0-.06,0-.13.01-.19,0-.06,0-.13,0-.19s0-.13,0-.19c0-.06,0-.13,0-.19,0-.06,0-.13,0-.19,0-.06,0-.13-.01-.19,0-.06-.01-.13-.02-.19,0-.06-.01-.13-.02-.19,0-.06-.02-.13-.03-.19,0-.06-.02-.13-.03-.19ZM15.7,32.45c-.14,0-.27,0-.41,0-1.18,0-2.74-.73-3.55-1.56.1-.24.19-.49.27-.74.94.46,2.31,1.13,3.36,1.22.19.28.55.63.58.97-.07.09-.14.08-.25.1ZM15.02,20.94c-.07,1.61-.15,3.23-.24,4.84,0,.1,0,.21-.07.29-.58-.04-2.27-1.37-2.72-1.82-.02-.72-.03-1.44-.45-2.07-.37-.57-.88-.8-1.52-.93-.13-.72-.16-1.58.09-2.28.13-.38.33-.59.69-.76,1.4-.31,2.94-.06,4.35.09.02.83-.09,1.79-.14,2.63Z"/>
          <path class="cls-9" d="M8.84,47.28c1.45-.24,3.12.42,4.39,1.08,2.42,1.25,6.23,4.22,7.07,6.85-.1.22-.24.37-.41.53-.04-.31-.13-.59-.25-.88-.74-1.57-2.21-2.99-3.54-4.09-1.67-1.37-4.8-3.27-6.99-3.03-.5.05-.81.22-1.12.6l-.04-.02c-.04-.21.06-.47.17-.64.18-.27.42-.33.72-.39Z"/>
          <path class="cls-6" d="M18.86,43.19c.39-.08.75-.05,1.13.05,1.21.32,2.71,1.41,3.33,2.5.35.62.51,1.36.29,2.06-.13.41-.77,1.37-1.13,1.56-.1-.07-.12-.16-.18-.27-.37-.77-.75-1.48-1.35-2.09-1.02-1.04-2.43-1.79-3.91-1.81.08-.22.18-.43.28-.64.34-.7.81-1.11,1.54-1.37Z"/>
          <path class="cls-1" d="M16.57,45.67c.33-.08.69.01,1.01.09,2.01.46,3.27,1.78,4.33,3.47-.17.53-.22,1.13-.32,1.68-.15.9-.32,1.78-.56,2.65-.12.39-.27.76-.42,1.14-.73-1.38-1.35-2.17-2.44-3.28.1-.42.12-.87.12-1.3,0-1.78-.45-3.18-1.72-4.46Z"/>
          <path class="cls-7" d="M11.61,44.84c.21-.06.46-.07.68-.07,1.36-.04,2.73.64,3.7,1.56,1.37,1.29,1.9,3.01,1.95,4.85-.54-.5-1.07-.97-1.66-1.41-1.73-1.32-4.14-2.73-6.33-2.94-.43-.04-.83-.01-1.26.03.05-.09.1-.19.16-.28.61-.98,1.69-1.47,2.77-1.73Z"/>
          <path class="cls-2" d="M8.84,48.31c.45-.1.92-.1,1.38-.04.71.1,1.39.36,2.04.65,2.43,1.08,4.62,2.89,6.21,5.02.5.67.89,1.31.77,2.18l-.58.03c-1.09.01-2.28-.31-3.29-.7-.62-.24-1.25-.52-1.83-.86-1.72-1.01-4.37-3.13-5.16-4.98-.11-.26-.19-.57-.07-.85.11-.24.3-.35.53-.45Z"/>
          <path class="cls-5" d="M62.24,46.71c.74.11,1.14-.56,1.7-.88.02-.01.04-.02.06-.04-.33.71-.94,1.35-1.69,1.63-.16.06-.33.09-.5.1l-.05-.03c.15-.27.33-.51.48-.78Z"/>
          <path class="cls-5" d="M54.23,43.74c.41-.38.65-.45,1.19-.44.34.11.54.17.71.51.02.04.04.08.06.11-.47.08-1.2.46-1.63.18-.12-.08-.2-.19-.29-.3l-.05-.06Z"/>
          <path class="cls-5" d="M59.07,47.42c.09.06.18.07.29.07.8.02,1.71-.34,2.29-.91.17-.17.27-.41.44-.56.02-.01.03-.03.05-.04-.2.74-.62,1.4-1.29,1.79-.66.38-1.38.46-2.1.25-.1-.03-.2-.06-.3-.1.21-.16.43-.33.64-.5Z"/>
          <path class="cls-9" d="M5.83,31.78c.42-.06.9.15,1.32.2,1.21.15,2.63-.71,3.48-1.51.18-.16.29-.42.48-.56.02-.01.04-.03.06-.04-.36,1.02-1.37,1.83-2.31,2.28-.66.32-1.37.42-2.08.16-.34-.12-.67-.31-.95-.54Z"/>
          <path class="cls-5" d="M59.82,45.63c-.19.52-.51,1.07-.91,1.45-.5.47-1.12.7-1.8.67-.59-.02-1.23-.23-1.64-.68-.37-.41-.52-1.03-.48-1.57.03-.34.14-.62.4-.84-.09.55-.13,1.06.21,1.55.3.43.81.71,1.32.8.66.11,1.37-.1,1.9-.49.36-.26.64-.64,1-.89Z"/>
          <path class="cls-9" d="M11.73,27.34c.69.47,2.6,1.75,3.32,1.91.04-.01.08-.01.11-.04.04.37.1.72.16,1.09-1.09-.11-2.5-.75-3.38-1.38,0-.55-.05-1.04-.22-1.57Z"/>
          <path class="cls-6" d="M10.93,26.05c.12.28-.14,1.05-.23,1.34-.34,1.02-1.02,1.78-1.82,2.47-.18.16-.37.35-.58.46v-.04c.18-.42.22-.75.12-1.2.51-.84.71-1.54.54-2.52.14.04.28.08.43.09.61.04,1.1-.2,1.54-.59Z"/>
          <path class="cls-6" d="M11.21,27.16c.05.11.09.21.13.32.3.8.19,1.63-.18,2.39-.02.01-.04.03-.06.04-.19.14-.3.4-.48.56-.85.79-2.27,1.66-3.48,1.51-.42-.05-.9-.26-1.32-.2-.04-.03-.07-.06-.1-.1.13-.09,1.46-.39,1.88-.61,1.66-.86,3.02-2.09,3.6-3.91Z"/>
          <path class="cls-5" d="M11.3,26.64c.03-.39-.06-1.01.11-1.35.08-.03.1,0,.17.03.31.17.6.42.89.62.84.58,1.73,1.08,2.71,1.36-.03.62-.08,1.28-.02,1.9-.03.03-.07.03-.11.04-.72-.16-2.62-1.44-3.32-1.91-.12-.25-.26-.48-.43-.69Z"/>
          <path class="cls-9" d="M8.29,20.74c.08-.22-.03-.63-.03-.87,0-.21.04-.42.08-.62.2-1.02.55-1.88,1.45-2.48.07-.05.14-.09.21-.13.07-.04.15-.07.23-.11.08-.03.16-.06.24-.08.08-.02.16-.04.24-.06,1.14-.23,3.84-.09,4.97.13-.01.3-.02.6-.03.89-1.43-.21-4.61-.6-5.8.29-.6.45-.74,1.2-.82,1.9-.02.23-.04.46-.04.68,0,.23.01.46.04.68.03.24.18.71.15.91l-.03.02c-.27-.45-.47-.8-.86-1.16Z"/>
          <path class="cls-6" d="M9.82,22.13c.19,0,.36,0,.55.08.31.12.53.37.66.68.27.63.26,1.5.02,2.14-.2.51-.54.87-1.04,1.09-.28.09-.63.15-.9.02-.19-.1-.3-.28-.36-.48-.22-.73-.07-2.27.32-2.93.19-.33.41-.51.78-.6Z"/>
          <path class="cls-6" d="M58.05,35.68c.32.27.14.9.22,1.25.02.11.11.23.18.31.37.47,1.03.75,1.62.81.69.07,1.45-.12,1.98-.57.22-.18.44-.45.46-.75.01-.18-.05-.26-.17-.39-.13-.14-.09-.85-.1-1.07.32.17.62.37.87.64.46.5.55,1.06.52,1.71-.14.57-.41.99-.88,1.34-.87.64-2.09.84-3.14.67-.83-.13-1.72-.47-2.23-1.19-.02-.03-.04-.05-.05-.08-.02-.03-.03-.05-.05-.08-.02-.03-.03-.05-.04-.08-.01-.03-.03-.06-.04-.08-.01-.03-.02-.06-.04-.09-.01-.03-.02-.06-.03-.09,0-.03-.02-.06-.03-.09,0-.03-.02-.06-.02-.09,0-.03-.01-.06-.02-.09,0-.03,0-.06-.01-.09,0-.03,0-.06,0-.09,0-.03,0-.06,0-.09,0-.03,0-.06,0-.09,0-.03,0-.06,0-.09,0-.03,0-.06.01-.09,0-.03,0-.06.02-.09.12-.63.47-1.04.98-1.38Z"/>
          <path class="cls-5" d="M6.82,20.13c.01-.49.05-.96.14-1.44.25-1.29.81-2.5,1.93-3.25,1.5-1,3.37-1.01,5.11-.92.61.03,1.22.05,1.82.17-.07.6-.13,1.22-.14,1.83-1.13-.22-3.82-.36-4.97-.13-.08.02-.16.04-.24.06-.08.02-.16.05-.24.08-.08.03-.15.07-.23.11-.07.04-.14.08-.21.13-.9.59-1.25,1.45-1.45,2.48-.04.2-.08.42-.08.62,0,.25.11.66.03.87-.44-.34-.92-.52-1.47-.61Z"/>
          <g>
            <path class="cls-8" d="M47.16,8.21c.16-.15.3-.17.51-.16-.42-.18-.85-.32-1.29-.46-2.06-.67-4.17-1-6.31-1.26-1.24-.15-2.48-.29-3.73-.36-.23.2-.38.43-.53.69,3.55.12,7.05.58,10.44,1.66.34.1.67.22,1,.34-.02-.01-.03-.02-.05-.04-.11-.09-.12-.13-.13-.26.02-.06.04-.11.08-.15Z"/>
            <path class="cls-8" d="M19.89,6.63c-.62.14-1.31.26-1.89.55.01.05.03.07,0,.12-.09.24-.12.46-.11.71.65-.17,1.31-.33,1.97-.48.66-.14,1.33-.27,1.99-.38.67-.11,1.34-.21,2.01-.29s1.35-.15,2.02-.2c2.09-.17,4.2-.2,6.3-.25.01-.27.03-.54.07-.81-1.48-.1-3.01-.03-4.48.05-2.64.15-5.3.4-7.89.98Z"/>
            <path class="cls-8" d="M35.96,5.12c.07-.07.14-.14.21-.2.07-.07.15-.13.22-.19.85-.69,2.98-1.65,3.1-2.8,0-.1.02-.19.02-.29-.17-.33-.37-.51-.74-.63-.57-.19-1.33-.13-1.9.05-1.34.4-2.43,1.28-3.09,2.52-.95,1.77-.99,3.84-.41,5.74.1.33.22.65.35.97.19-.01.39-.03.58-.02-.09-.5-.14-.99-.13-1.5.01-.1.02-.19.04-.29.02-.1.03-.19.05-.29.02-.1.04-.19.07-.29.03-.1.05-.19.08-.28s.06-.19.1-.28c.03-.09.07-.18.11-.27.04-.09.08-.18.12-.27.04-.09.09-.18.14-.26s.1-.17.15-.26c.05-.08.1-.17.16-.25.06-.08.11-.16.17-.24.06-.08.12-.16.18-.23.06-.08.13-.15.19-.22s.13-.14.2-.21Z"/>
          </g>
          <path class="cls-5" d="M16.71,8.95c.37.3.77.53,1.16.81-.11.48-.1,1.05-.13,1.54-.1,1.44-.14,2.88-.22,4.33-.2,3.03-.37,6.06-.52,9.1-.05,1.23-.17,2.52-.08,3.75.09,1.16.4,2.29,1.02,3.29,1.1,1.8,2.91,3.3,4.8,4.21.37.18,1.3.45,1.54.73-.03,0-.06,0-.08-.01-.5-.1-1.01-.35-1.48-.54-2.31-.95-4.68-2.39-6.09-4.51-.44-.66-.9-1.46-1-2.25-.09-.69.01-1.49.06-2.19.06-.92.11-1.84.14-2.76.13-3.69.3-7.37.53-11.06l.18-2.64c.04-.59.07-1.2.19-1.78Z"/>
          <path class="cls-9" d="M18.01,7.18c.01.05.03.07,0,.12-.09.24-.12.46-.11.71,0,.14.1.24.19.33,1.45,1.5,7.7,2.27,9.85,2.48,2.47.24,5.01.4,7.49.39,1.5,0,3-.03,4.5-.1,1.49-.08,6.8-.45,7.79-1.4.1-.1.2-.24.2-.38,0-.13-.03-.22-.12-.31-.15-.15-.37-.24-.55-.36-.02-.01-.03-.02-.05-.04-.11-.09-.12-.13-.13-.26.02-.06.04-.11.08-.15.16-.15.3-.17.51-.16.64.22,1.77.6,2.14,1.2.08.12.12.28.08.42-.06.21-.27.37-.45.47-.93.55-2.1.85-3.14,1.1-6.64,1.59-18.55,1.08-25.14-.64-1.08-.28-3.75-1.2-4.27-2.17-.08-.14-.11-.3-.05-.46.14-.36.84-.65,1.17-.8Z"/>
          <path class="cls-9" d="M50.77,42.42c.16.06.32.11.44.23.41.38.4,1.23.4,1.75-.02,3.65-1.1,7.9-3.77,10.52-.48.47-1.18,1.13-1.87,1.12-.18-.03-.35-.07-.52-.12.17-.04.33-.1.49-.17,1.95-.85,3.56-3.49,4.3-5.42.7-1.82,1.28-4.94.9-6.87-.07-.37-.21-.7-.37-1.04Z"/>
          <path class="cls-6" d="M42.96,39.84c.14-.03.28-.06.43-.08.73-.09,1.46.25,2.03.69.45.36.69.76.75,1.33.16,1.45-.5,3.27-1.41,4.38-.43.52-.94.88-1.63.94-.83.08-1.67-.1-2.32-.63-.54-.53-.64-1.05-.67-1.77.48.19.87.44,1.32.69.22.12.37.18.61.1.45-.14.76-.58.98-.97.46-.84.81-1.99.51-2.94-.07-.22-.17-.45-.39-.55-.15-.07-.36-.06-.52,0-.22.08-.33.25-.43.45l-.02.05c-.25-.12-.5-.25-.75-.37.39-.67.77-1.05,1.51-1.31Z"/>
          <path class="cls-1" d="M46.5,40.9c.69.08,1.4.19,2.06.4.94.29,1.47.76,1.92,1.63.12.24.23.49.28.76.06.35.05.74.05,1.1,0,1.55-.18,3.13-.65,4.62-.61-.39-1.23-.66-1.91-.9-1.7-.52-3.14-.6-4.78.14.19-.4.4-.8.54-1.22.04,0,.07-.02.11-.03.69-.19,1.35-1.19,1.67-1.79.74-1.37,1.17-3.18.71-4.7Z"/>
          <path class="cls-7" d="M44.85,48.67c.2-.04.4-.07.6-.09.2-.02.4-.03.6-.03,1.19,0,3.14.49,4,1.35-.65,1.66-1.55,3.33-2.86,4.57-.42.38-.9.76-1.42.99-.44.19-.89.22-1.33.04-.7-.29-1.17-.98-1.46-1.66-.59-1.42-.45-2.99.12-4.4.55-.38,1.11-.6,1.75-.76Z"/>
          <path class="cls-6" d="M4.71,20.69c.95-.14,2.27-.2,3.14.28.51.28.8.76.95,1.31-.12.22-.2.44-.28.67-.23-.2-.45-.38-.72-.53-1.19-.64-2.59-.42-3.83-.06.64-.03,1.29-.05,1.93-.01,1,.06,1.79.33,2.47,1.1-.08.77-.13,1.5-.04,2.28-.05-.03-.1-.07-.15-.1-1.18-.72-2.95-.64-4.24-.33.83.03,1.67.05,2.5.15.65.08,1.51.27,1.92.84.29.4.29.89.22,1.36-.09.39-.23.68-.51.96-1.11-.65-2.62-.68-3.86-.42.49.05.99.08,1.49.12.69.06,1.81.16,2.27.75.11.14.15.3.12.47-.06.34-.33.64-.61.82-.79.54-1.94.62-2.86.45-.97-.18-1.91-.69-2.47-1.53-.44-.66-.66-1.35-.5-2.13-.09-.19-.18-.38-.25-.57-.37-1.1-.1-1.89.38-2.88-.06-.57-.07-1.05.25-1.56.56-.88,1.71-1.24,2.67-1.44Z"/>
          <path class="cls-6" d="M57.07,38.82c.74.84,1.95,1.26,3.04,1.33.93.06,2.5-.22,3.23-.83.06-.05.1-.1.14-.16.13.03.2.15.27.26.81,1.26,1.09,3.54.75,4.99-.11.46-.28.98-.51,1.39-.02.01-.04.02-.06.04-.55.32-.96.99-1.7.88.06-.15.12-.3.16-.46.07-.24.15-.61.03-.83h-.06c-.12.14-.16.39-.22.56-.02.01-.03.03-.05.04-.17.16-.27.4-.44.56-.57.57-1.48.93-2.29.91-.11,0-.19-.01-.29-.07.29-.31.56-.62.73-1.01.1-.22.22-.59.13-.83h-.05s-.07.06-.07.06c-.36.26-.64.63-1,.89-.53.39-1.25.6-1.9.49-.51-.09-1.02-.36-1.32-.8-.34-.49-.3-1-.21-1.55.28-.19.53-.25.85-.32.04.24-.02.96.14,1.12l.07-.04c.07-.11.12-.22.15-.35.13-.49.12-1.14-.14-1.59-.1-.17-.25-.32-.45-.36-.24-.05-.39.04-.59.17-.54-.01-.78.06-1.19.44-.31-.63-.22-1.25,0-1.9.45-1.3,1.5-2.38,2.72-2.97.04-.02.08-.03.11-.05Z"/>
          <path class="cls-6" d="M17.87,9.75c5.38,2.91,19.04,3.18,25.28,2.44.71-.08,1.42-.19,2.13-.33.7-.14,1.4-.32,2.09-.52.87-.26,1.74-.55,2.52-1.02l-.77,15.45-.19,3.84c-.05.84-.04,1.79-.26,2.61-.25.93-.82,1.68-1.53,2.31-3.45,3.09-9.98,4.07-14.45,3.81-2.42-.14-4.78-.58-7.11-1.22-.4-.11-.96-.21-1.31-.42-.24-.27-1.17-.55-1.54-.73-1.9-.91-3.7-2.42-4.8-4.21-.61-1-.93-2.12-1.02-3.29-.09-1.23.03-2.51.08-3.75.15-3.03.32-6.07.52-9.1.08-1.44.12-2.89.22-4.33.03-.49.02-1.06.13-1.54Z"/>
          <g>
            <path class="cls-3" d="M29.98,24.09c.37-.05.71-.05,1.08.03.63.14,1.11.48,1.46,1.02-.39-.15-.78-.33-1.19-.45-.44-.13-1.06-.27-1.48-.02-.22.13-.37.37-.43.62-.1.42.04.8.26,1.16.42.53,1,.87,1.59,1.17-.45-.05-.87-.14-1.27-.34-.47-.24-.89-.66-1.04-1.17-.13-.42-.09-.92.12-1.3.21-.38.51-.58.91-.7Z"/>
            <path class="cls-3" d="M25.4,15.3c.46-.07.95-.01,1.37.17.73.32,1.1.97,1.38,1.68-.38-.36-.8-.7-1.28-.92-.82-.36-1.6-.23-2.4.09-.9.41-1.61,1.11-2.23,1.86.13-.33.29-.64.48-.93.63-.99,1.53-1.7,2.69-1.96Z"/>
            <path class="cls-3" d="M38.26,15.78c.69-.13,1.44,0,2.02.4,1.1.75,1.4,1.9,1.62,3.13-.35-.66-.74-1.23-1.28-1.76-.4-.37-.83-.66-1.36-.83-1.18-.38-2.35-.07-3.42.48.04-.05.08-.09.12-.13.04-.04.08-.09.13-.13.04-.04.09-.08.13-.12.04-.04.09-.08.14-.12.05-.04.09-.08.14-.11.05-.04.1-.07.14-.11.05-.03.1-.07.15-.1.05-.03.1-.06.15-.09.05-.03.1-.06.16-.09.05-.03.11-.06.16-.08.05-.03.11-.05.16-.07.05-.02.11-.05.17-.07.06-.02.11-.04.17-.06.06-.02.11-.04.17-.05.06-.02.11-.03.17-.05.06-.01.12-.03.17-.04Z"/>
            <path class="cls-3" d="M38.26,19.05s.02,0,.03,0c.38-.03.71.1,1,.36.7.63.9,1.71.96,2.6.09,1.34-.17,2.96-1.09,4-.32.36-.78.64-1.27.65-.42.01-.75-.2-1.04-.49-.07-.08-.13-.16-.19-.25-.77-1.16-.72-2.79-.45-4.1.63.05,1.26.07,1.89.11-.53-.33-1.09-.61-1.65-.89.12-.36.29-.72.5-1.04.32-.49.74-.84,1.32-.96Z"/>
            <path class="cls-3" d="M25.32,18.09c.06-.01.11-.02.17-.03.4-.05.77.02,1.1.27.64.5.85,1.47.92,2.24.14,1.45-.15,3.27-1.11,4.43-.29.35-.67.64-1.14.68-.42.03-.75-.16-1.05-.43-.13-.14-.26-.27-.37-.43-.69-1.03-.74-2.46-.51-3.65.75-.06,1.49-.1,2.24-.17-.64-.3-1.37-.46-1.98-.82.04-.11.08-.22.12-.33.33-.74.84-1.45,1.61-1.75Z"/>
            <path class="cls-3" d="M22.07,27.66c.26.07,1.46.8,1.85.99,1.37.68,2.91,1.17,4.41,1.47,2.76.55,8.06.77,10.47-.84-.13-.13-.28-.26-.35-.43-.04-.09-.05-.13-.01-.22.1-.02.15-.01.25.03.17.07.34.21.48.33.51.42.81.82,1.03,1.44-.39-.26-.76-.56-1.12-.86-.5.31-1.03.54-1.58.76-.07.07-.43,1.58-.52,1.85-.21.63-.57,1.29-.93,1.85-.7,1.07-1.67,1.82-2.94,2.07-1.33.26-2.66-.1-3.77-.85-1.18-.81-2.14-2.15-2.6-3.5-.19-.55-.29-1.13-.4-1.7-1.53-.56-3.01-1.31-4.25-2.38Z"/>
            <path class="cls-4" d="M33.3,32.26c.31-.03.63-.05.94-.02.79.06,1.36.37,1.88.98-.2.34-.41.66-.66.97-.75.93-1.63,1.43-2.82,1.56-1.05.06-1.94-.18-2.84-.71.14-.41.29-.8.55-1.16.7-.97,1.81-1.42,2.95-1.61Z"/>
          </g>
        </g>
        <g>
          <path d="M186.27,51.96c-.25,0-.49-.05-.71-.14s-.41-.22-.57-.38c-.16-.16-.29-.35-.38-.57-.09-.22-.13-.45-.13-.7s.05-.48.14-.7c.09-.22.22-.41.38-.57.16-.16.35-.29.57-.38s.45-.14.71-.14.49.05.71.13c.22.09.41.22.57.38s.29.35.37.57c.09.22.13.45.13.7s-.05.49-.14.71-.22.41-.38.57c-.16.16-.35.29-.57.38s-.45.14-.7.14ZM186.27,51.81c.23,0,.45-.04.65-.13.2-.09.37-.2.52-.35.15-.15.27-.32.35-.52s.12-.42.12-.65-.04-.45-.12-.64-.2-.37-.34-.52c-.15-.15-.32-.26-.52-.35-.2-.08-.41-.12-.65-.12s-.45.04-.65.13c-.2.08-.38.2-.52.35-.15.15-.26.32-.35.52-.08.2-.12.41-.12.64s.04.44.12.64c.08.2.2.37.35.52.15.15.32.27.52.35.2.08.41.13.64.13ZM186.31,51.23c-.2,0-.38-.05-.54-.13-.16-.09-.28-.21-.37-.37-.09-.16-.13-.34-.13-.55s.05-.39.13-.55c.09-.16.21-.28.37-.37.16-.09.34-.13.54-.13.16,0,.31.03.45.1.14.06.25.15.34.27l-.16.13c-.07-.1-.17-.18-.28-.23-.11-.05-.23-.08-.36-.08-.16,0-.3.04-.43.11s-.22.17-.3.3c-.07.13-.11.28-.11.45s.04.32.11.45c.07.13.17.23.3.3s.27.11.43.11c.13,0,.24-.03.36-.08.11-.05.2-.13.28-.23l.16.12c-.09.12-.2.22-.34.28-.14.06-.29.1-.45.1Z"/>
          <path d="M191.19,51.97c-.26,0-.51-.04-.75-.13-.23-.09-.42-.21-.54-.35l.12-.19c.12.13.29.23.5.32.21.09.44.13.67.13s.43-.03.58-.09c.15-.06.26-.15.33-.25s.11-.22.11-.35c0-.15-.04-.27-.12-.37-.08-.09-.19-.16-.32-.22-.13-.05-.28-.1-.43-.14-.16-.04-.31-.08-.47-.12-.16-.04-.3-.1-.44-.16-.13-.07-.24-.16-.32-.28-.08-.12-.12-.27-.12-.45,0-.17.04-.32.13-.47.09-.14.22-.26.41-.35s.42-.13.72-.13c.2,0,.39.03.58.09.19.06.35.14.49.23l-.1.21c-.15-.1-.31-.18-.48-.23-.17-.05-.34-.07-.49-.07-.23,0-.41.03-.56.1-.15.06-.26.15-.33.26-.07.11-.11.23-.11.36,0,.15.04.27.12.36s.19.16.32.22c.13.05.28.1.44.14.16.04.32.08.47.12s.3.1.43.16c.13.07.24.16.32.27.08.12.12.26.12.45,0,.17-.05.32-.14.46s-.23.26-.42.34-.43.13-.72.13Z"/>
          <path d="M193.97,51.94v-3.32h-1.28v-.23h2.81v.23h-1.28v3.32h-.26Z"/>
          <path d="M196.15,51.94v-3.55h.26v3.55h-.26ZM196.38,50.26v-.23h2.43v.23h-2.43ZM198.78,51.94v-3.55h.26v3.55h-.26Z"/>
          <path d="M200.28,51.94v-3.55h.22l1.65,2.84h-.12l1.64-2.84h.21v3.55s-.25,0-.25,0v-3.16s.07,0,.07,0l-1.56,2.69h-.13l-1.56-2.69h.08v3.16h-.25Z"/>
          <path d="M205.12,51.94v-3.55h.26v3.32h2.04v.23h-2.3Z"/>
          <path d="M209.48,50.89c-.06,0-.11-.01-.16-.04s-.09-.07-.11-.11c-.03-.05-.04-.1-.04-.16s.01-.11.04-.16c.03-.05.07-.09.11-.11.05-.03.1-.04.16-.04s.11.01.16.04c.05.03.09.07.11.11.03.05.04.1.04.16s-.01.12-.04.16c-.03.05-.07.09-.11.11-.05.03-.1.04-.16.04Z"/>
          <path d="M211.7,51.94v-.18l1.5-1.49c.14-.14.25-.27.32-.37.07-.11.12-.21.15-.3s.04-.18.04-.27c0-.22-.08-.4-.23-.53s-.37-.2-.67-.2c-.22,0-.42.03-.59.1-.17.07-.31.17-.43.31l-.18-.16c.14-.16.31-.28.51-.36.21-.08.44-.13.71-.13.23,0,.44.04.61.11.17.08.3.18.4.32s.14.31.14.5c0,.11-.02.23-.05.34-.03.11-.09.23-.17.35s-.2.26-.36.42l-1.41,1.4-.09-.1h2.25v.23h-2.44Z"/>
          <path d="M216,51.97c-.27,0-.51-.07-.72-.22-.21-.15-.37-.35-.49-.62-.12-.27-.18-.59-.18-.96s.06-.69.18-.96c.12-.27.28-.48.49-.62.21-.15.45-.22.72-.22s.51.07.72.22c.21.15.37.35.49.62.12.27.18.59.18.96s-.06.69-.18.96c-.12.27-.28.48-.49.62-.21.15-.45.22-.72.22ZM216,51.73c.23,0,.42-.06.59-.18.17-.12.3-.3.4-.54.09-.23.14-.51.14-.84s-.05-.61-.14-.84-.23-.41-.4-.53c-.17-.12-.37-.18-.59-.18s-.42.06-.59.18c-.17.12-.3.3-.4.53-.09.23-.14.51-.14.84s.05.61.14.84c.09.23.23.41.4.54.17.12.37.18.59.18Z"/>
          <path d="M217.88,51.94v-.18l1.5-1.49c.14-.14.25-.27.32-.37.07-.11.12-.21.14-.3s.04-.18.04-.27c0-.22-.08-.4-.23-.53s-.37-.2-.67-.2c-.22,0-.42.03-.59.1-.17.07-.31.17-.43.31l-.18-.16c.14-.16.31-.28.51-.36.21-.08.44-.13.71-.13.23,0,.44.04.61.11.17.08.3.18.4.32.09.14.14.31.14.5,0,.11-.02.23-.05.34-.03.11-.09.23-.17.35s-.2.26-.36.42l-1.41,1.4-.09-.1h2.25v.23h-2.44Z"/>
          <path d="M221.9,51.97c-.26,0-.5-.04-.72-.13-.22-.09-.4-.2-.52-.35l.13-.2c.11.13.26.23.46.31s.41.12.65.12c.33,0,.57-.07.74-.22s.25-.34.25-.58c0-.17-.04-.31-.12-.44s-.21-.22-.4-.28c-.19-.07-.44-.1-.76-.1h-.72l.19-1.72h1.88v.23h-1.77l.13-.12-.17,1.51-.12-.13h.64c.36,0,.65.04.86.13.22.09.37.21.47.36s.14.34.14.55c0,.2-.05.37-.14.53s-.23.29-.41.38c-.18.09-.41.14-.69.14Z"/>
        </g>
      </g>
    </g>
  </g>
</svg>